<?xml version="1.0" encoding="UTF-8" standalone="no"?>
<svg width="77px" height="35px" viewBox="0 0 77 35" version="1.1" xmlns="http://www.w3.org/2000/svg" xmlns:xlink="http://www.w3.org/1999/xlink">
    <!-- Generator: Sketch 3.6.1 (26313) - http://www.bohemiancoding.com/sketch -->
    <title>icon_front</title>
    <desc>Created with Sketch.</desc>
    <defs></defs>
    <g id="02.-Catalog" stroke="none" stroke-width="1" fill="none" fill-rule="evenodd">
        <g id="02.04.a-Catalog-Fiche---209910-front" transform="translate(-385.000000, -653.000000)" stroke="#A6A8AB" stroke-width="3">
            <g id="views-/-front" transform="translate(358.000000, 618.000000)">
                <path d="M44.4024823,68 C52.9090383,68 59.8049645,61.0604136 59.8049645,52.5 C59.8049645,43.9395864 52.9090383,37 44.4024823,37 C35.8959262,37 29,43.9395864 29,52.5 C29,61.0604136 35.8959262,68 44.4024823,68 Z M86.5975177,68 C95.1040738,68 102,61.0604136 102,52.5 C102,43.9395864 95.1040738,37 86.5975177,37 C78.0909617,37 71.1950355,43.9395864 71.1950355,52.5 C71.1950355,61.0604136 78.0909617,68 86.5975177,68 Z M58.9737644,47.5777728 C58.9737644,39.699792 72.0350707,39.1245469 72.0350707,47.5777727" id="icon_front"></path>
            </g>
        </g>
    </g>
</svg>