<?xml version="1.0" encoding="UTF-8" standalone="no"?>
<svg width="17px" height="25px" viewBox="0 0 17 25" version="1.1" xmlns="http://www.w3.org/2000/svg" xmlns:xlink="http://www.w3.org/1999/xlink">
    <!-- Generator: Sketch 3.6.1 (26313) - http://www.bohemiancoding.com/sketch -->
    <title>fiche</title>
    <desc>Created with Sketch.</desc>
    <defs>
        <path d="M1159,20.9907522 C1159,19.3390054 1160.33396,18 1162.00013,18 L1172.99987,18 C1174.6568,18 1176,19.3441086 1176,20.9907522 L1176,40.0092478 C1176,41.6609946 1174.66604,43 1172.99987,43 L1162.00013,43 C1160.3432,43 1159,41.6558914 1159,40.0092478 L1159,20.9907522 Z M1167.5,27 C1168.88071,27 1170,25.8807119 1170,24.5 C1170,23.1192881 1168.88071,22 1167.5,22 C1166.11929,22 1165,23.1192881 1165,24.5 C1165,25.8807119 1166.11929,27 1167.5,27 Z" id="path-1"></path>
    </defs>
    <g id="00.-Home" stroke="none" stroke-width="1" fill="none" fill-rule="evenodd">
        <g id="00-Home-2" transform="translate(-1159.000000, -18.000000)">
            <mask id="mask-2" fill="white">
                <use xlink:href="#path-1"></use>
            </mask>
            <use id="fiche" fill="#000000" transform="translate(1167.500000, 30.500000) rotate(-180.000000) translate(-1167.500000, -30.500000) " xlink:href="#path-1"></use>
        </g>
    </g>
</svg>