<?xml version="1.0" encoding="UTF-8" standalone="no"?>
<svg width="17px" height="25px" viewBox="0 0 17 25" version="1.1" xmlns="http://www.w3.org/2000/svg" xmlns:xlink="http://www.w3.org/1999/xlink">
    <!-- Generator: Sketch 3.6.1 (26313) - http://www.bohemiancoding.com/sketch -->
    <title>fiche</title>
    <desc>Created with Sketch.</desc>
    <defs>
        <path d="M1192,20.9907522 C1192,19.3390054 1193.33396,18 1195.00013,18 L1205.99987,18 C1207.6568,18 1209,19.3441086 1209,20.9907522 L1209,40.0092478 C1209,41.6609946 1207.66604,43 1205.99987,43 L1195.00013,43 C1193.3432,43 1192,41.6558914 1192,40.0092478 L1192,20.9907522 Z M1200.5,27 C1201.88071,27 1203,25.8807119 1203,24.5 C1203,23.1192881 1201.88071,22 1200.5,22 C1199.11929,22 1198,23.1192881 1198,24.5 C1198,25.8807119 1199.11929,27 1200.5,27 Z" id="path-1"></path>
    </defs>
    <g id="00.-Home" stroke="none" stroke-width="1" fill="none" fill-rule="evenodd">
        <g id="00-Home-2" transform="translate(-1192.000000, -18.000000)">
            <mask id="mask-2" fill="white">
                <use xlink:href="#path-1"></use>
            </mask>
            <use id="fiche" fill="#D23719" transform="translate(1200.500000, 30.500000) rotate(-180.000000) translate(-1200.500000, -30.500000) " xlink:href="#path-1"></use>
        </g>
    </g>
</svg>